<svg width="113" height="41" viewBox="0 0 113 41" fill="none" xmlns="http://www.w3.org/2000/svg">
<path d="M14.415 2.81186C13.903 4.06086 13.331 5.33784 12.853 6.64584C11.9783 8.89168 11.5608 11.2896 11.625 13.6989C11.6608 15.9813 12.479 18.1823 13.9429 19.9339C15.2815 21.4715 17.0408 22.5839 19.004 23.1339C21.9082 23.9976 24.9972 24.0243 27.9159 23.2108C35.0399 21.3358 42.1519 19.4109 49.2699 17.5109C57.0633 15.4289 64.8566 13.3462 72.6499 11.2628C82.1706 8.71818 91.6906 6.17218 101.21 3.62485C104.517 2.74018 107.825 1.85887 111.134 0.980865C111.391 0.921551 111.653 0.888045 111.917 0.880859C111.961 0.885609 112.004 0.90075 112.041 0.925079C112.079 0.949408 112.11 0.982221 112.132 1.02084C112.136 1.06158 112.131 1.10281 112.116 1.14096C112.101 1.17911 112.077 1.21306 112.046 1.23987C111.893 1.36603 111.725 1.47252 111.546 1.55685C106.95 3.52952 102.353 5.49853 97.754 7.46387C91.7126 10.0492 85.6706 12.6322 79.628 15.2129C72.3933 18.3022 65.16 21.3899 57.928 24.4759C51.4206 27.2472 44.911 30.0138 38.399 32.7758C33.956 34.6508 29.5389 36.5889 25.0099 38.2509C22.3184 39.2968 19.5142 40.0257 16.654 40.4229C13.4908 40.8958 10.2585 40.4854 7.31395 39.2368C5.57033 38.4896 3.99349 37.4017 2.67595 36.0369C1.05263 34.2753 0.187019 31.946 0.265947 29.5518C0.30203 27.3437 0.718804 25.1583 1.49794 23.0919C2.55674 20.1942 3.91865 17.4165 5.56096 14.8049C8.19124 10.5809 11.1539 6.57316 14.4209 2.81985C14.4319 2.80685 14.4499 2.79885 14.4209 2.81985" fill="white"/>
</svg>
