<svg xmlns="http://www.w3.org/2000/svg" width="207.643" height="211.498" viewBox="0 0 207.643 211.498"><path d="M402.993,393.045v-4.711a1.764,1.764,0,0,1,0-.778.718.718,0,0,0,.043-.216,4.825,4.825,0,0,1,2.075-1.9l78.318-39.2.043-95.737q-.217-3.977,1.772-5.23,2.032-1.254,5.705.519l18.715,9.379,15.6,7.823,30.774,15.387,46.507,23.21q6.181,2.68,5.965,9.6v97.6q.691,4.409-5.014,7.175l-74.429,37.56a10.861,10.861,0,0,1-7.866,0L405.154,395.552a4.149,4.149,0,0,1-2.031-2.075c-.058-.029-.086-.058-.086-.086A1.889,1.889,0,0,1,402.993,393.045ZM453.174,408l31.552,15.474,17.591-8.731-31.6-15.56Zm-50.181-19.666a.186.186,0,0,0,.043.13,4.242,4.242,0,0,0,2.075,2.031h.043L520.9,448.369a11.022,11.022,0,0,0,8.471,0l79.14-39.591L483.43,346.235m-35.918,30.039,101.874,50.872,32.806-16.641L480.231,359.721ZM596.2,389.457,495.748,339.8l.043-78.448,100.4,49.705Z" transform="translate(-401.949 -243.75)" fill="none" stroke="#3c4044" stroke-linecap="round" stroke-linejoin="round" stroke-width="2"/></svg>