<svg xmlns="http://www.w3.org/2000/svg" width="160.364" height="204.464" viewBox="0 0 160.364 204.464"><path d="M1352.25,248.15l7.45-3.4a9.69,9.69,0,0,1,4.9,1.25l79.15,39.6,56.5,28.15a11.846,11.846,0,0,1,5.85,5.1,12.543,12.543,0,0,1,1.35,6.6v118.5L1501,447.2l-151.9-75.95.1-116.35q-.3-4.75,2.1-6.35a4.762,4.762,0,0,1,.95-.4,5.876,5.876,0,0,1,3.6.15,13.972,13.972,0,0,1,2.35.9l79.1,39.6,56.45,28.2a12.075,12.075,0,0,1,5.75,4.8l4.35-1.95m-55.65,40q0,12.25-7.45,16.55-7.4,4.4-17.95-1.7-10.55-6.05-17.95-19t-7.4-25.2q0-12.2,7.4-16.6,7.4-4.35,17.95,1.75t17.95,19Q1448.2,347.6,1448.2,359.85Zm-32.9-34.6,19.2,26.6-19.2,4.3Zm84.2-3.45a13.089,13.089,0,0,1,1.5,6.85V447.2m-10-17.15-131.9-65.2.05-103.1L1491,327.05Z" transform="translate(-1348.1 -243.736)" fill="none" stroke="#3c4044" stroke-linecap="round" stroke-linejoin="round" stroke-width="2"/></svg>