<svg xmlns="http://www.w3.org/2000/svg" width="357.536" height="61.104" viewBox="0 0 357.536 61.104"><path d="M252.2,35.921a10.7,10.7,0,0,0-9.428-5.627h-8.309l.023,31.561H242.9l-.016-23.149a2.3,2.3,0,0,1,1.911,1.206l8.8,16.315a10.694,10.694,0,0,0,9.426,5.628h8.31l-.023-31.561h-8.413l.018,23.146A2.3,2.3,0,0,1,261,52.235Z" transform="translate(62.914 -15.519)" fill="#5ce5b0"/><rect width="8.413" height="31.561" transform="translate(282.848 14.775)" fill="#5ce5b0"/><path d="M273,30.294h-7.114v1.529h2.792v6.883h1.529V31.823H273Z" transform="translate(74.474 -15.519)" fill="#5ce5b0"/><path d="M279.208,30.294l-2.736,6.86-2.737-6.86h-1.529v8.414h1.529v-4.29l1.71,4.29H277.5l1.708-4.288v4.288h1.529V30.294Z" transform="translate(76.799 -15.519)" fill="#5ce5b0"/><path d="M136.949,36.97a10.711,10.711,0,0,0-19.843,0L106.984,61.857h23.465l-3.421-8.413h-7.54L124.9,40.139a2.3,2.3,0,0,1,4.257,0l8.832,21.717h9.081Z" transform="translate(16.015 -15.518)" fill="#fff"/><path d="M195.207,38.707h28.567V30.294h-30.8a8.472,8.472,0,0,0-8.473,8.471V53.383a8.472,8.472,0,0,0,8.473,8.473h30.8V53.443H195.207a2.3,2.3,0,0,1-2.3-2.3V49.134h19.736V43.015H192.908V41a2.3,2.3,0,0,1,2.3-2.3" transform="translate(44.531 -15.519)" fill="#fff"/><path d="M172.287,61.858l11.824-21.945a2.3,2.3,0,0,1,1.912-1.206l-.018,23.149h8.47V30.294h-8.343a10.7,10.7,0,0,0-9.428,5.626l-9.166,17-9.031-17a10.7,10.7,0,0,0-9.427-5.626h-8.343V61.858l8.47,0-.019-23.149a2.29,2.29,0,0,1,1.9,1.183l11.669,21.966Z" transform="translate(28.433 -15.519)" fill="#fff"/><path d="M113.075,43.017H93.444v6.119h11.218v4.307H84.508a2.3,2.3,0,0,1-2.3-2.3V41a2.3,2.3,0,0,1,2.3-2.3h28.567V30.294H82.27A8.472,8.472,0,0,0,73.8,38.765V53.383a8.472,8.472,0,0,0,8.473,8.473h30.8Z" transform="translate(3.806 -15.519)" fill="#fff"/><path d="M49.046,39.3,39.587,33.84,30.13,39.3V50.222l9.458,5.462V44.761Z" transform="translate(-12.259 -14.214)" fill="#5ce5b0"/><path d="M71.724,43.974V38.02a6.5,6.5,0,0,0-3.251-5.632L47.647,20.365a6.5,6.5,0,0,0-6.5,0L20.316,32.388a6.5,6.5,0,0,0-3.251,5.632V62.069A6.505,6.505,0,0,0,20.316,67.7L41.143,79.725a6.507,6.507,0,0,0,6.5,0L68.473,67.7a6.505,6.505,0,0,0,3.251-5.633V54.9l-8.413-4.857v10.92L44.394,71.886,25.478,60.965V39.121L44.394,28.2Z" transform="translate(-17.065 -19.493)" fill="#fff"/></svg>