<svg xmlns="http://www.w3.org/2000/svg" xmlns:xlink="http://www.w3.org/1999/xlink" width="384.662" height="477.831" viewBox="0 0 384.662 477.831"><defs><clipPath id="a"><rect width="384.662" height="477.831" fill="none"/></clipPath></defs><g clip-path="url(#a)"><path d="M43.153,547.922V523.3L21.827,510.984.5,523.3v24.626l21.326,12.313Z" transform="translate(-0.168 -171.332)" fill="none" stroke="#9d7fef" stroke-miterlimit="10" stroke-width="1"/></g><path d="M171.49,547.922V523.3l-21.326-12.313L128.837,523.3v24.626l21.326,12.313Z" transform="translate(-43.199 -171.332)" fill="none" stroke="#8490f6" stroke-miterlimit="10" stroke-width="1"/><path d="M235.658,547.922V523.3l-21.326-12.313L193.006,523.3v24.626l21.326,12.313Z" transform="translate(-64.715 -171.332)" fill="none" stroke="#69b3e7" stroke-miterlimit="10" stroke-width="1"/><path d="M299.827,436.757V412.131L278.5,399.818l-21.326,12.313v24.626L278.5,449.07Z" transform="translate(-86.23 -134.058)" fill="none" stroke="#5ce5b0" stroke-miterlimit="10" stroke-width="2"/><path d="M450.786,251.865V208.891L413.57,187.4l-37.217,21.487v42.974l37.217,21.487Z" transform="translate(-126.191 -62.836)" fill="none" stroke="#69b3e7" stroke-miterlimit="10" stroke-width="3"/><path d="M88.834,455.335V443.011l-10.673-6.162-10.672,6.162v12.324L78.161,461.5Z" transform="translate(-22.629 -146.475)" fill="none" stroke="#9d7fef" stroke-miterlimit="10" stroke-width="1"/><path d="M115.984,658.181V645.857L105.311,639.7l-10.672,6.162v12.324l10.672,6.162Z" transform="translate(-31.732 -214.488)" fill="none" stroke="#9d7fef" stroke-miterlimit="10" stroke-width="1"/><g clip-path="url(#a)"><path d="M424.768,19.063V6.738L414.1.577,403.423,6.738V19.063L414.1,25.224Z" transform="translate(-135.267 -0.193)" fill="none" stroke="#9d7fef" stroke-miterlimit="10" stroke-width="1"/><path d="M307.7,652.291V609.317L270.485,587.83l-37.217,21.487v42.974l37.217,21.487Z" transform="translate(-78.215 -197.098)" fill="none" stroke="#69b3e7" stroke-miterlimit="10" stroke-width="3"/></g><path d="M331.911,492.328V467.7l-21.326-12.313L289.258,467.7v24.626l21.326,12.313Z" transform="translate(-96.988 -152.691)" fill="none" stroke="#61d3c4" stroke-miterlimit="10" stroke-width="1"/><path d="M267.743,492.351V467.725l-21.326-12.313L225.09,467.725v24.626l21.326,12.313Z" transform="translate(-75.472 -152.699)" fill="none" stroke="#65c3d6" stroke-miterlimit="10" stroke-width="1"/><path d="M203.574,492.351V467.725l-21.326-12.313-21.326,12.313v24.626l21.326,12.313Z" transform="translate(-53.957 -152.699)" fill="none" stroke="#69b3e7" stroke-miterlimit="10" stroke-width="1"/><path d="M364,547.922V523.3l-21.326-12.313L321.343,523.3v24.626l21.326,12.313Z" transform="translate(-107.746 -171.332)" fill="none" stroke="#5ce5b0" stroke-miterlimit="10" stroke-width="2"/><path d="M364,325.591V300.965l-21.326-12.313-21.326,12.313v24.626L342.669,337.9Z" transform="translate(-107.746 -96.784)" fill="none" stroke="#65c3d6" stroke-miterlimit="10" stroke-width="2"/><path d="M331.911,270.019V245.393L310.585,233.08l-21.326,12.313v24.626l21.326,12.313Z" transform="translate(-96.988 -78.151)" fill="none" stroke="#76a2ee" stroke-miterlimit="10" stroke-width="1"/><path d="M331.911,103.282V78.656L310.585,66.343,289.259,78.656v24.626l21.326,12.313Z" transform="translate(-96.988 -22.245)" fill="none" stroke="#9d7fef" stroke-miterlimit="10" stroke-width="1"/><g clip-path="url(#a)"><path d="M512.594,436.892V363.52l-63.542-36.685L385.511,363.52v73.371l63.541,36.686Z" transform="translate(-129.261 -109.587)" fill="none" stroke="#5ce5b0" stroke-miterlimit="10" stroke-width="4"/></g><path d="M299.827,325.614V300.988L278.5,288.675l-21.326,12.313v24.626L278.5,337.927Z" transform="translate(-86.23 -96.792)" fill="none" stroke="#65c3d6" stroke-miterlimit="10" stroke-width="1"/><path d="M331.911,381.185V356.559l-21.326-12.313-21.326,12.313v24.626L310.585,393.5Z" transform="translate(-96.988 -115.425)" fill="none" stroke="#61d3c4" stroke-miterlimit="10" stroke-width="1"/></svg>