<svg width="303" height="146" viewBox="0 0 303 146" fill="none" xmlns="http://www.w3.org/2000/svg">
<path d="M170.262 62.157L151.681 51.429L133.1 62.157V83.613L151.681 94.339V72.884L170.262 62.157Z" stroke="white" stroke-width="2" stroke-miterlimit="10"/>
<path d="M205.37 60.9688V49.2688C205.37 47.0261 204.78 44.8228 203.659 42.8805C202.537 40.9381 200.924 39.3252 198.982 38.2038L158.069 14.5818C156.127 13.4606 153.923 12.8704 151.68 12.8704C149.438 12.8704 147.234 13.4606 145.292 14.5818L104.379 38.2038C102.437 39.3252 100.824 40.9381 99.7021 42.8804C98.5806 44.8227 97.9901 47.026 97.99 49.2688V96.5108C97.9901 98.7537 98.5806 100.957 99.7021 102.899C100.824 104.842 102.437 106.455 104.379 107.576L145.292 131.198C147.234 132.319 149.438 132.909 151.68 132.909C153.923 132.909 156.127 132.319 158.069 131.198L198.982 107.576C200.924 106.454 202.537 104.842 203.659 102.899C204.78 100.957 205.37 98.7536 205.37 96.5108V82.4388L188.843 72.8958V94.3478L151.68 115.801L114.518 94.3458V51.4338L151.68 29.9778L205.37 60.9688Z" stroke="white" stroke-width="2" stroke-miterlimit="10"/>
<path d="M229.64 72.8828H301.726" stroke="white" stroke-width="2" stroke-miterlimit="10"/>
<path d="M227.748 36.3209L301.725 1.47485" stroke="white" stroke-width="2" stroke-miterlimit="10"/>
<path d="M199.139 8.18089L205.798 1.21289" stroke="white" stroke-width="2" stroke-miterlimit="10"/>
<path d="M227.748 109.446L301.725 144.292" stroke="white" stroke-width="2" stroke-miterlimit="10"/>
<path d="M199.139 137.584L205.798 144.552" stroke="white" stroke-width="2" stroke-miterlimit="10"/>
<path d="M73.245 72.8828H0.968018" stroke="white" stroke-width="2" stroke-miterlimit="10"/>
<path d="M75.141 36.3209L0.968018 1.47485" stroke="white" stroke-width="2" stroke-miterlimit="10"/>
<path d="M103.827 8.18089L97.15 1.21289" stroke="white" stroke-width="2" stroke-miterlimit="10"/>
<path d="M75.141 109.446L0.968018 144.292" stroke="white" stroke-width="2" stroke-miterlimit="10"/>
<path d="M103.827 137.584L97.15 144.552" stroke="white" stroke-width="2" stroke-miterlimit="10"/>
</svg>
