<?xml version="1.0" encoding="UTF-8" standalone="no"?>
<!DOCTYPE svg PUBLIC "-//W3C//DTD SVG 1.1//EN"
 "http://www.w3.org/Graphics/SVG/1.1/DTD/svg11.dtd">
<!-- Generated by graphviz version 2.47.0 (20210316.0004)
 -->
<!-- Title: dependencies Pages: 1 -->
<svg width="1262pt" height="284pt"
 viewBox="0.00 0.00 1262.00 284.00" xmlns="http://www.w3.org/2000/svg" xmlns:xlink="http://www.w3.org/1999/xlink">
<g id="graph0" class="graph" transform="scale(1 1) rotate(0) translate(4 280)">
<title>dependencies</title>
<polygon fill="white" stroke="transparent" points="-4,4 -4,-280 1258,-280 1258,4 -4,4"/>
<text text-anchor="start" x="606.01" y="-42.4" font-family="Times-12" font-weight="bold" font-size="14.00">Legend</text>
<polygon fill="#ffffb3" stroke="transparent" points="393,-10 393,-30 413,-30 413,-10 393,-10"/>
<text text-anchor="start" x="416.63" y="-15.4" font-family="Times-12" font-size="14.00"> &#160;Declarations</text>
<polygon fill="#8dd3c7" stroke="transparent" points="506,-10 506,-30 526,-30 526,-10 506,-10"/>
<text text-anchor="start" x="529.73" y="-15.4" font-family="Times-12" font-size="14.00"> &#160;Module</text>
<polygon fill="#80b1d3" stroke="transparent" points="592,-10 592,-30 612,-30 612,-10 592,-10"/>
<text text-anchor="start" x="615.78" y="-15.4" font-family="Times-12" font-size="14.00"> &#160;Bootstrap</text>
<polygon fill="#fdb462" stroke="transparent" points="689,-10 689,-30 709,-30 709,-10 689,-10"/>
<text text-anchor="start" x="712.67" y="-15.4" font-family="Times-12" font-size="14.00"> &#160;Providers</text>
<polygon fill="#fb8072" stroke="transparent" points="785,-10 785,-30 805,-30 805,-10 785,-10"/>
<text text-anchor="start" x="808.73" y="-15.4" font-family="Times-12" font-size="14.00"> &#160;Exports</text>
<g id="clust1" class="cluster">
<title>cluster_OfferingsModule</title>
<polygon fill="none" stroke="black" stroke-dasharray="1,5" points="8,-70 8,-268 1246,-268 1246,-70 8,-70"/>
</g>
<g id="clust6" class="cluster">
<title>cluster_OfferingsModule_providers</title>
<polygon fill="none" stroke="black" points="448,-78 448,-130 1238,-130 1238,-78 448,-78"/>
</g>
<g id="clust3" class="cluster">
<title>cluster_OfferingsModule_imports</title>
<polygon fill="none" stroke="black" points="16,-78 16,-130 440,-130 440,-78 16,-78"/>
</g>
<g id="clust4" class="cluster">
<title>cluster_OfferingsModule_exports</title>
<polygon fill="none" stroke="black" points="395,-208 395,-260 681,-260 681,-208 395,-208"/>
</g>
<!-- OfferingOffersModule -->
<g id="node1" class="node">
<title>OfferingOffersModule</title>
<polygon fill="#8dd3c7" stroke="black" points="431.99,-122 428.99,-126 407.99,-126 404.99,-122 288.01,-122 288.01,-86 431.99,-86 431.99,-122"/>
<text text-anchor="middle" x="360" y="-99.8" font-family="Times,serif" font-size="14.00">OfferingOffersModule</text>
</g>
<!-- OfferingsModule -->
<g id="node4" class="node">
<title>OfferingsModule</title>
<polygon fill="#8dd3c7" stroke="black" points="589.69,-187 586.69,-191 565.69,-191 562.69,-187 476.31,-187 476.31,-151 589.69,-151 589.69,-187"/>
<text text-anchor="middle" x="533" y="-164.8" font-family="Times,serif" font-size="14.00">OfferingsModule</text>
</g>
<!-- OfferingOffersModule&#45;&gt;OfferingsModule -->
<g id="edge1" class="edge">
<title>OfferingOffersModule&#45;&gt;OfferingsModule</title>
<path fill="none" stroke="black" d="M417.59,-122.03C417.59,-138.4 417.59,-160 417.59,-160 417.59,-160 466.31,-160 466.31,-160"/>
<polygon fill="black" stroke="black" points="466.31,-163.5 476.31,-160 466.31,-156.5 466.31,-163.5"/>
</g>
<!-- OfferingPriceModule -->
<g id="node2" class="node">
<title>OfferingPriceModule</title>
<polygon fill="#8dd3c7" stroke="black" points="270.01,-122 267.01,-126 246.01,-126 243.01,-122 133.99,-122 133.99,-86 270.01,-86 270.01,-122"/>
<text text-anchor="middle" x="202" y="-99.8" font-family="Times,serif" font-size="14.00">OfferingPriceModule</text>
</g>
<!-- OfferingPriceModule&#45;&gt;OfferingsModule -->
<g id="edge2" class="edge">
<title>OfferingPriceModule&#45;&gt;OfferingsModule</title>
<path fill="none" stroke="black" d="M202,-122.11C202,-141.34 202,-169 202,-169 202,-169 466.1,-169 466.1,-169"/>
<polygon fill="black" stroke="black" points="466.1,-172.5 476.1,-169 466.1,-165.5 466.1,-172.5"/>
</g>
<!-- UsersModule -->
<g id="node3" class="node">
<title>UsersModule</title>
<polygon fill="#8dd3c7" stroke="black" points="115.92,-122 112.92,-126 91.92,-126 88.92,-122 24.08,-122 24.08,-86 115.92,-86 115.92,-122"/>
<text text-anchor="middle" x="70" y="-99.8" font-family="Times,serif" font-size="14.00">UsersModule</text>
</g>
<!-- UsersModule&#45;&gt;OfferingsModule -->
<g id="edge3" class="edge">
<title>UsersModule&#45;&gt;OfferingsModule</title>
<path fill="none" stroke="black" d="M70,-122.29C70,-144.21 70,-178 70,-178 70,-178 466.23,-178 466.23,-178"/>
<polygon fill="black" stroke="black" points="466.23,-181.5 476.23,-178 466.23,-174.5 466.23,-181.5"/>
</g>
<!-- OfferingBaseService  -->
<g id="node5" class="node">
<title>OfferingBaseService </title>
<polygon fill="#fb8072" stroke="black" points="673.38,-252 536.62,-252 536.62,-216 673.38,-216 673.38,-252"/>
<text text-anchor="middle" x="605" y="-229.8" font-family="Times,serif" font-size="14.00">OfferingBaseService </text>
</g>
<!-- OfferingsModule&#45;&gt;OfferingBaseService  -->
<g id="edge4" class="edge">
<title>OfferingsModule&#45;&gt;OfferingBaseService </title>
<path fill="none" stroke="black" stroke-dasharray="5,2" d="M563.08,-187.11C563.08,-187.11 563.08,-205.99 563.08,-205.99"/>
<polygon fill="black" stroke="black" points="559.58,-205.99 563.08,-215.99 566.58,-205.99 559.58,-205.99"/>
</g>
<!-- OfferingsService  -->
<g id="node6" class="node">
<title>OfferingsService </title>
<polygon fill="#fb8072" stroke="black" points="518.62,-252 403.38,-252 403.38,-216 518.62,-216 518.62,-252"/>
<text text-anchor="middle" x="461" y="-229.8" font-family="Times,serif" font-size="14.00">OfferingsService </text>
</g>
<!-- OfferingsModule&#45;&gt;OfferingsService  -->
<g id="edge5" class="edge">
<title>OfferingsModule&#45;&gt;OfferingsService </title>
<path fill="none" stroke="black" stroke-dasharray="5,2" d="M497.48,-187.11C497.48,-187.11 497.48,-205.99 497.48,-205.99"/>
<polygon fill="black" stroke="black" points="493.98,-205.99 497.48,-215.99 500.98,-205.99 493.98,-205.99"/>
</g>
<!-- OfferingBaseService -->
<g id="node7" class="node">
<title>OfferingBaseService</title>
<ellipse fill="#fdb462" stroke="black" cx="1138" cy="-104" rx="92.01" ry="18"/>
<text text-anchor="middle" x="1138" y="-99.8" font-family="Times,serif" font-size="14.00">OfferingBaseService</text>
</g>
<!-- OfferingBaseService&#45;&gt;OfferingsModule -->
<g id="edge6" class="edge">
<title>OfferingBaseService&#45;&gt;OfferingsModule</title>
<path fill="none" stroke="black" d="M1138,-122.29C1138,-144.21 1138,-178 1138,-178 1138,-178 599.65,-178 599.65,-178"/>
<polygon fill="black" stroke="black" points="599.65,-174.5 589.65,-178 599.64,-181.5 599.65,-174.5"/>
</g>
<!-- OfferingOffersService -->
<g id="node8" class="node">
<title>OfferingOffersService</title>
<ellipse fill="#fdb462" stroke="black" cx="930" cy="-104" rx="97.79" ry="18"/>
<text text-anchor="middle" x="930" y="-99.8" font-family="Times,serif" font-size="14.00">OfferingOffersService</text>
</g>
<!-- OfferingOffersService&#45;&gt;OfferingsModule -->
<g id="edge7" class="edge">
<title>OfferingOffersService&#45;&gt;OfferingsModule</title>
<path fill="none" stroke="black" d="M930,-122.11C930,-141.34 930,-169 930,-169 930,-169 599.88,-169 599.88,-169"/>
<polygon fill="black" stroke="black" points="599.88,-165.5 589.88,-169 599.88,-172.5 599.88,-165.5"/>
</g>
<!-- OfferingPriceService -->
<g id="node9" class="node">
<title>OfferingPriceService</title>
<ellipse fill="#fdb462" stroke="black" cx="721" cy="-104" rx="93.15" ry="18"/>
<text text-anchor="middle" x="721" y="-99.8" font-family="Times,serif" font-size="14.00">OfferingPriceService</text>
</g>
<!-- OfferingPriceService&#45;&gt;OfferingsModule -->
<g id="edge8" class="edge">
<title>OfferingPriceService&#45;&gt;OfferingsModule</title>
<path fill="none" stroke="black" d="M650.68,-115.88C650.68,-132.31 650.68,-160 650.68,-160 650.68,-160 599.77,-160 599.77,-160"/>
<polygon fill="black" stroke="black" points="599.77,-156.5 589.77,-160 599.77,-163.5 599.77,-156.5"/>
</g>
<!-- OfferingsService -->
<g id="node10" class="node">
<title>OfferingsService</title>
<ellipse fill="#fdb462" stroke="black" cx="533" cy="-104" rx="76.98" ry="18"/>
<text text-anchor="middle" x="533" y="-99.8" font-family="Times,serif" font-size="14.00">OfferingsService</text>
</g>
<!-- OfferingsService&#45;&gt;OfferingsModule -->
<g id="edge9" class="edge">
<title>OfferingsService&#45;&gt;OfferingsModule</title>
<path fill="none" stroke="black" d="M533,-122.11C533,-122.11 533,-140.99 533,-140.99"/>
<polygon fill="black" stroke="black" points="529.5,-140.99 533,-150.99 536.5,-140.99 529.5,-140.99"/>
</g>
</g>
</svg>
