<?xml version="1.0" encoding="UTF-8" standalone="no"?>
<!DOCTYPE svg PUBLIC "-//W3C//DTD SVG 1.1//EN"
 "http://www.w3.org/Graphics/SVG/1.1/DTD/svg11.dtd">
<!-- Generated by graphviz version 2.47.0 (20210316.0004)
 -->
<!-- Title: dependencies Pages: 1 -->
<svg width="504pt" height="211pt"
 viewBox="0.00 0.00 504.00 211.00" xmlns="http://www.w3.org/2000/svg" xmlns:xlink="http://www.w3.org/1999/xlink">
<g id="graph0" class="graph" transform="scale(1 1) rotate(0) translate(4 207)">
<title>dependencies</title>
<polygon fill="white" stroke="transparent" points="-4,4 -4,-207 500,-207 500,4 -4,4"/>
<text text-anchor="start" x="227.01" y="-42.4" font-family="Times-12" font-weight="bold" font-size="14.00">Legend</text>
<polygon fill="#ffffb3" stroke="transparent" points="14,-10 14,-30 34,-30 34,-10 14,-10"/>
<text text-anchor="start" x="37.63" y="-15.4" font-family="Times-12" font-size="14.00"> &#160;Declarations</text>
<polygon fill="#8dd3c7" stroke="transparent" points="127,-10 127,-30 147,-30 147,-10 127,-10"/>
<text text-anchor="start" x="150.73" y="-15.4" font-family="Times-12" font-size="14.00"> &#160;Module</text>
<polygon fill="#80b1d3" stroke="transparent" points="213,-10 213,-30 233,-30 233,-10 213,-10"/>
<text text-anchor="start" x="236.78" y="-15.4" font-family="Times-12" font-size="14.00"> &#160;Bootstrap</text>
<polygon fill="#fdb462" stroke="transparent" points="310,-10 310,-30 330,-30 330,-10 310,-10"/>
<text text-anchor="start" x="333.67" y="-15.4" font-family="Times-12" font-size="14.00"> &#160;Providers</text>
<polygon fill="#fb8072" stroke="transparent" points="406,-10 406,-30 426,-30 426,-10 406,-10"/>
<text text-anchor="start" x="429.73" y="-15.4" font-family="Times-12" font-size="14.00"> &#160;Exports</text>
<g id="clust1" class="cluster">
<title>cluster_UserSearchModule</title>
<polygon fill="none" stroke="black" stroke-dasharray="1,5" points="90,-70 90,-195 406,-195 406,-70 90,-70"/>
</g>
<g id="clust6" class="cluster">
<title>cluster_UserSearchModule_providers</title>
<polygon fill="none" stroke="black" points="214,-78 214,-130 398,-130 398,-78 214,-78"/>
</g>
<g id="clust3" class="cluster">
<title>cluster_UserSearchModule_imports</title>
<polygon fill="none" stroke="black" points="98,-78 98,-130 206,-130 206,-78 98,-78"/>
</g>
<!-- UsersModule -->
<g id="node1" class="node">
<title>UsersModule</title>
<polygon fill="#8dd3c7" stroke="black" points="197.92,-122 194.92,-126 173.92,-126 170.92,-122 106.08,-122 106.08,-86 197.92,-86 197.92,-122"/>
<text text-anchor="middle" x="152" y="-99.8" font-family="Times,serif" font-size="14.00">UsersModule</text>
</g>
<!-- UserSearchModule -->
<g id="node2" class="node">
<title>UserSearchModule</title>
<polygon fill="#8dd3c7" stroke="black" points="295.06,-187 292.06,-191 271.06,-191 268.06,-187 170.94,-187 170.94,-151 295.06,-151 295.06,-187"/>
<text text-anchor="middle" x="233" y="-164.8" font-family="Times,serif" font-size="14.00">UserSearchModule</text>
</g>
<!-- UsersModule&#45;&gt;UserSearchModule -->
<g id="edge1" class="edge">
<title>UsersModule&#45;&gt;UserSearchModule</title>
<path fill="none" stroke="black" d="M184.34,-122.11C184.34,-122.11 184.34,-140.99 184.34,-140.99"/>
<polygon fill="black" stroke="black" points="180.84,-140.99 184.34,-150.99 187.84,-140.99 180.84,-140.99"/>
</g>
<!-- UserSearchService -->
<g id="node3" class="node">
<title>UserSearchService</title>
<ellipse fill="#fdb462" stroke="black" cx="306" cy="-104" rx="84.48" ry="18"/>
<text text-anchor="middle" x="306" y="-99.8" font-family="Times,serif" font-size="14.00">UserSearchService</text>
</g>
<!-- UserSearchService&#45;&gt;UserSearchModule -->
<g id="edge2" class="edge">
<title>UserSearchService&#45;&gt;UserSearchModule</title>
<path fill="none" stroke="black" d="M258.27,-119.08C258.27,-119.08 258.27,-140.76 258.27,-140.76"/>
<polygon fill="black" stroke="black" points="254.77,-140.76 258.27,-150.76 261.77,-140.76 254.77,-140.76"/>
</g>
</g>
</svg>
